<?xml version="1.0" encoding="UTF-8" standalone="no"?>
<!-- Created with Inkscape (http://www.inkscape.org/) -->

<svg
   width="68.760437mm"
   height="17.049219mm"
   viewBox="0 0 68.760437 17.04922"
   version="1.1"
   id="svg5"
   sodipodi:docname="discord-decorated.svg"
   inkscape:version="1.1.2 (0a00cf5339, 2022-02-04)"
   xmlns:inkscape="http://www.inkscape.org/namespaces/inkscape"
   xmlns:sodipodi="http://sodipodi.sourceforge.net/DTD/sodipodi-0.dtd"
   xmlns="http://www.w3.org/2000/svg"
   xmlns:svg="http://www.w3.org/2000/svg">
  <sodipodi:namedview
     id="namedview14"
     pagecolor="#ffffff"
     bordercolor="#666666"
     borderopacity="1.0"
     inkscape:pageshadow="2"
     inkscape:pageopacity="0.0"
     inkscape:pagecheckerboard="0"
     inkscape:document-units="mm"
     showgrid="false"
     inkscape:zoom="5.1100121"
     inkscape:cx="129.84314"
     inkscape:cy="32.289552"
     inkscape:window-width="2560"
     inkscape:window-height="1408"
     inkscape:window-x="1920"
     inkscape:window-y="0"
     inkscape:window-maximized="1"
     inkscape:current-layer="svg5" />
  <defs
     id="defs2">
    <rect
       x="205.10136"
       y="-13.852696"
       width="178.61092"
       height="91.723091"
       id="rect60005" />
    <rect
       x="212.03491"
       y="-25.385828"
       width="204.52097"
       height="120.1245"
       id="rect18133" />
  </defs>
  <g
     id="layer1"
     transform="translate(-18.314817,-50.746094)">
    <g
       aria-label="@discord()"
       id="text2398"
       style="font-size:7.15045px;line-height:1.25;font-family:'Droid Sans Fallback';-inkscape-font-specification:'Droid Sans Fallback';fill:#5865f2;stroke-width:0.178762">
      <path
         d="m 20.744852,54.296879 q 0,0.429446 0.181555,0.677338 0.185046,0.247891 0.499274,0.247891 0.310738,0 0.495784,-0.247891 0.185045,-0.251383 0.185045,-0.677338 0,-0.422463 -0.188537,-0.666863 -0.185046,-0.247892 -0.499274,-0.247892 -0.307246,0 -0.492292,0.247892 -0.181555,0.2444 -0.181555,0.666863 z m 1.431487,1.050921 q -0.104743,0.247892 -0.338669,0.387549 -0.230434,0.136166 -0.541172,0.136166 -0.600526,0 -0.9776,-0.432938 -0.373583,-0.436429 -0.373583,-1.134715 0,-0.698286 0.377074,-1.134715 0.377075,-0.436429 0.974109,-0.436429 0.310738,0 0.541172,0.139658 0.233926,0.139657 0.338669,0.387548 v -0.457377 h 0.729709 v 2.419561 q 0.432937,-0.06634 0.680829,-0.41548 0.247892,-0.352634 0.247892,-0.900789 0,-0.349143 -0.101252,-0.652897 -0.101251,-0.307246 -0.307246,-0.562121 -0.331686,-0.425954 -0.83096,-0.656389 -0.495783,-0.230434 -1.075361,-0.230434 -0.405006,0 -0.775098,0.108234 -0.370091,0.104743 -0.68432,0.310737 -0.516732,0.342161 -0.806521,0.886824 -0.286297,0.541172 -0.286297,1.173121 0,0.520223 0.185046,0.9776 0.188537,0.453886 0.541172,0.803029 0.349143,0.342161 0.799537,0.520223 0.453886,0.181555 0.967127,0.181555 0.43992,0 0.87984,-0.164097 0.439921,-0.164098 0.750658,-0.443412 l 0.373583,0.565612 q -0.436429,0.338669 -0.953161,0.516731 -0.51324,0.181555 -1.043937,0.181555 -0.645915,0 -1.21851,-0.230435 -0.572594,-0.226943 -1.019498,-0.663371 -0.446903,-0.436429 -0.680829,-1.009024 -0.233925,-0.576086 -0.233925,-1.235966 0,-0.635441 0.237417,-1.211527 0.237417,-0.576086 0.677337,-1.012515 0.439921,-0.432937 1.02299,-0.670354 0.58656,-0.237418 1.215018,-0.237418 0.78208,0 1.421012,0.300263 0.638932,0.296772 1.068378,0.858892 0.261857,0.34216 0.394531,0.743675 0.136166,0.398023 0.136166,0.837943 0,0.946178 -0.569103,1.469893 -0.569103,0.523714 -1.606058,0.523714 h -0.136166 z"
         style="font-weight:bold"
         id="path831" />
      <path
         d="m 28.25492,52.840953 v -2.094859 h 1.256915 v 5.432667 H 28.25492 v -0.565612 q -0.258366,0.345651 -0.569103,0.506257 -0.310738,0.160606 -0.719235,0.160606 -0.722726,0 -1.187086,-0.572595 -0.464361,-0.576086 -0.464361,-1.480366 0,-0.904281 0.464361,-1.476875 0.46436,-0.576087 1.187086,-0.576087 0.405006,0 0.715743,0.164098 0.314229,0.160605 0.572595,0.502766 z m -0.823978,2.531287 q 0.401515,0 0.611001,-0.29328 0.212977,-0.29328 0.212977,-0.851909 0,-0.558629 -0.212977,-0.851909 -0.209486,-0.293281 -0.611001,-0.293281 -0.398023,0 -0.611,0.293281 -0.209486,0.29328 -0.209486,0.851909 0,0.558629 0.209486,0.851909 0.212977,0.29328 0.611,0.29328 z"
         style="font-weight:bold"
         id="path833" />
      <path
         d="m 30.712887,52.268358 h 1.249932 v 3.910403 h -1.249932 z m 0,-1.522264 h 1.249932 v 1.019498 h -1.249932 z"
         style="font-weight:bold"
         id="path835" />
      <path
         d="m 36.218873,52.390558 v 0.949669 q -0.401515,-0.167588 -0.775098,-0.251383 -0.373583,-0.08379 -0.705269,-0.08379 -0.356126,0 -0.530697,0.09078 -0.17108,0.08729 -0.17108,0.272332 0,0.150131 0.129183,0.230434 0.132674,0.0803 0.471343,0.118709 l 0.21996,0.03142 q 0.960143,0.1222 1.291829,0.401514 0.331686,0.279315 0.331686,0.876349 0,0.624966 -0.460869,0.939195 -0.460868,0.314229 -1.375623,0.314229 -0.387549,0 -0.803029,-0.06285 -0.411989,-0.05935 -0.848418,-0.181554 v -0.949669 q 0.373583,0.181554 0.764623,0.272331 0.394532,0.09078 0.799538,0.09078 0.3666,0 0.551646,-0.101251 0.185046,-0.101251 0.185046,-0.300263 0,-0.167589 -0.129183,-0.247892 -0.125692,-0.08379 -0.506258,-0.129183 l -0.21996,-0.02793 q -0.834452,-0.104743 -1.169629,-0.387549 -0.335177,-0.282806 -0.335177,-0.858892 0,-0.621474 0.425954,-0.921738 0.425955,-0.300263 1.305795,-0.300263 0.345652,0 0.726218,0.05237 0.380566,0.05237 0.827469,0.164097 z"
         style="font-weight:bold"
         id="path837" />
      <path
         d="m 40.57967,52.390558 v 1.019498 q -0.254875,-0.174572 -0.51324,-0.258366 -0.254875,-0.08379 -0.530698,-0.08379 -0.523715,0 -0.816995,0.307246 -0.289789,0.303754 -0.289789,0.851909 0,0.548154 0.289789,0.8554 0.29328,0.303755 0.816995,0.303755 0.29328,0 0.555138,-0.08729 0.265348,-0.08729 0.4888,-0.258366 v 1.022989 q -0.29328,0.108235 -0.597035,0.160606 -0.300263,0.05586 -0.604017,0.05586 -1.057904,0 -1.654939,-0.541172 -0.597034,-0.544663 -0.597034,-1.511789 0,-0.967127 0.597034,-1.508298 0.597035,-0.544664 1.654939,-0.544664 0.307246,0 0.604017,0.05586 0.300263,0.05237 0.597035,0.160606 z"
         style="font-weight:bold"
         id="path839" />
      <path
         d="m 43.519455,53.067896 q -0.41548,0 -0.63544,0.300263 -0.216469,0.296771 -0.216469,0.858892 0,0.56212 0.216469,0.862383 0.21996,0.296772 0.63544,0.296772 0.408498,0 0.624967,-0.296772 0.216468,-0.300263 0.216468,-0.862383 0,-0.562121 -0.216468,-0.858892 -0.216469,-0.300263 -0.624967,-0.300263 z m 0,-0.893807 q 1.009024,0 1.574636,0.544664 0.569103,0.544663 0.569103,1.508298 0,0.963635 -0.569103,1.508298 -0.565612,0.544663 -1.574636,0.544663 -1.012514,0 -1.585109,-0.544663 -0.569103,-0.544663 -0.569103,-1.508298 0,-0.963635 0.569103,-1.508298 0.572595,-0.544664 1.585109,-0.544664 z"
         style="font-weight:bold"
         id="path841" />
      <path
         d="m 49.475836,53.333244 q -0.164097,-0.07681 -0.328194,-0.111725 -0.160606,-0.03841 -0.324703,-0.03841 -0.481818,0 -0.743675,0.310737 -0.258366,0.307246 -0.258366,0.883332 v 1.801579 h -1.249932 v -3.910403 h 1.249932 v 0.642423 q 0.240909,-0.384057 0.551646,-0.558629 0.314229,-0.178063 0.750658,-0.178063 0.06285,0 0.136166,0.007 0.07332,0.0035 0.212977,0.02095 z"
         style="font-weight:bold"
         id="path843" />
      <path
         d="m 52.757781,52.840953 v -2.094859 h 1.256915 v 5.432667 h -1.256915 v -0.565612 q -0.258366,0.345651 -0.569104,0.506257 -0.310737,0.160606 -0.719234,0.160606 -0.722727,0 -1.187087,-0.572595 -0.46436,-0.576086 -0.46436,-1.480366 0,-0.904281 0.46436,-1.476875 0.46436,-0.576087 1.187087,-0.576087 0.405006,0 0.715743,0.164098 0.314229,0.160605 0.572595,0.502766 z m -0.823978,2.531287 q 0.401514,0 0.611,-0.29328 0.212978,-0.29328 0.212978,-0.851909 0,-0.558629 -0.212978,-0.851909 -0.209486,-0.293281 -0.611,-0.293281 -0.398023,0 -0.611,0.293281 -0.209486,0.29328 -0.209486,0.851909 0,0.558629 0.209486,0.851909 0.212977,0.29328 0.611,0.29328 z"
         style="font-weight:bold"
         id="path845" />
      <path
         d="m 57.310606,57.121447 h -1.036955 q -0.534189,-0.862384 -0.789064,-1.637481 -0.254874,-0.778589 -0.254874,-1.543213 0,-0.764623 0.254874,-1.546703 0.258366,-0.785572 0.789064,-1.640973 h 1.036955 q -0.446904,0.827469 -0.670355,1.620024 -0.223452,0.789063 -0.223452,1.56067 0,0.771606 0.21996,1.564161 0.223452,0.792554 0.673847,1.623515 z"
         style="font-weight:bold"
         id="path847" />
      <path
         d="m 58.455794,57.121447 q 0.446903,-0.830961 0.670355,-1.623515 0.223452,-0.792555 0.223452,-1.564161 0,-0.771607 -0.223452,-1.56067 -0.223452,-0.792555 -0.670355,-1.620024 h 1.036955 q 0.530698,0.855401 0.785572,1.640973 0.258366,0.78208 0.258366,1.546703 0,0.764624 -0.254874,1.543213 -0.254875,0.775097 -0.789064,1.637481 z"
         style="font-weight:bold"
         id="path849" />
    </g>
    <g
       aria-label="decorated()"
       id="text7337"
       style="font-size:10.5833px;line-height:1.25;font-family:'Droid Sans Fallback';-inkscape-font-specification:'Droid Sans Fallback';fill:#5865f2;stroke-width:0.264583">
      <path
         d="m 22.665959,61.459804 v -3.100576 h 1.860346 v 8.040827 h -1.860346 v -0.837156 q -0.382404,0.511595 -0.842323,0.749306 -0.459919,0.237711 -1.064531,0.237711 -1.069699,0 -1.756993,-0.847491 -0.687295,-0.852658 -0.687295,-2.191073 0,-1.338416 0.687295,-2.185907 0.687294,-0.852658 1.756993,-0.852658 0.599444,0 1.059363,0.242878 0.465087,0.237711 0.847491,0.744139 z m -1.21956,3.746529 q 0.594277,0 0.904335,-0.434081 0.315225,-0.43408 0.315225,-1.2609 0,-0.826821 -0.315225,-1.260901 -0.310058,-0.434081 -0.904335,-0.434081 -0.589109,0 -0.904335,0.434081 -0.310057,0.43408 -0.310057,1.260901 0,0.82682 0.310057,1.2609 0.315226,0.434081 0.904335,0.434081 z"
         style="font-weight:bold"
         id="path852" />
      <path
         d="m 32.081375,63.490681 v 0.527098 h -4.325304 q 0.06718,0.651121 0.470254,0.976681 0.403075,0.325561 1.126543,0.325561 0.583942,0 1.193722,-0.170532 0.614947,-0.175699 1.260901,-0.527098 v 1.426265 q -0.656289,0.248046 -1.312578,0.372069 -0.656288,0.129191 -1.312577,0.129191 -1.570958,0 -2.444287,-0.795814 -0.868162,-0.800983 -0.868162,-2.24275 0,-1.41593 0.852659,-2.227248 0.857826,-0.811317 2.356438,-0.811317 1.364253,0 2.180738,0.821653 0.821653,0.821652 0.821653,2.196241 z m -1.901687,-0.614948 q 0,-0.527097 -0.310057,-0.84749 -0.30489,-0.325561 -0.800983,-0.325561 -0.537433,0 -0.873328,0.30489 -0.335896,0.299723 -0.418578,0.868161 z"
         style="font-weight:bold"
         id="path854" />
      <path
         d="m 38.158504,60.79318 v 1.508947 q -0.377237,-0.258381 -0.759641,-0.382404 -0.377237,-0.124024 -0.785479,-0.124024 -0.775144,0 -1.209225,0.454752 -0.428913,0.449583 -0.428913,1.260901 0,0.811317 0.428913,1.266068 0.434081,0.449584 1.209225,0.449584 0.43408,0 0.821652,-0.129191 0.39274,-0.129191 0.723468,-0.382404 v 1.514114 q -0.434081,0.160197 -0.883664,0.237711 -0.444416,0.08268 -0.894,0.08268 -1.565791,0 -2.449455,-0.800982 -0.883664,-0.80615 -0.883664,-2.237582 0,-1.431433 0.883664,-2.232415 0.883664,-0.80615 2.449455,-0.80615 0.454751,0 0.894,0.08268 0.444416,0.07751 0.883664,0.237711 z"
         style="font-weight:bold"
         id="path856" />
      <path
         d="m 42.509645,61.795699 q -0.614947,0 -0.940508,0.444416 -0.320393,0.439249 -0.320393,1.271237 0,0.831987 0.320393,1.276403 0.325561,0.439249 0.940508,0.439249 0.604613,0 0.925005,-0.439249 0.320393,-0.444416 0.320393,-1.276403 0,-0.831988 -0.320393,-1.271237 -0.320392,-0.444416 -0.925005,-0.444416 z m 0,-1.322912 q 1.493444,0 2.3306,0.80615 0.842323,0.80615 0.842323,2.232415 0,1.426265 -0.842323,2.232414 -0.837156,0.80615 -2.3306,0.80615 -1.498611,0 -2.346102,-0.80615 -0.842323,-0.806149 -0.842323,-2.232414 0,-1.426265 0.842323,-2.232415 0.847491,-0.80615 2.346102,-0.80615 z"
         style="font-weight:bold"
         id="path858" />
      <path
         d="m 51.325617,62.188439 q -0.242879,-0.113688 -0.485757,-0.165364 -0.237711,-0.05684 -0.480589,-0.05684 -0.713133,0 -1.100705,0.459919 -0.382404,0.454751 -0.382404,1.30741 v 2.666495 h -1.850011 v -5.787742 h 1.850011 v 0.950843 q 0.356566,-0.568439 0.816485,-0.82682 0.465086,-0.263549 1.11104,-0.263549 0.09302,0 0.201537,0.01034 0.10852,0.0052 0.315225,0.03101 z"
         style="font-weight:bold"
         id="path860" />
      <path
         d="m 54.839603,63.795571 q -0.578774,0 -0.873329,0.19637 -0.289387,0.19637 -0.289387,0.578774 0,0.351399 0.232543,0.552936 0.237711,0.19637 0.656289,0.19637 0.52193,0 0.878496,-0.372069 0.356567,-0.377237 0.356567,-0.940508 v -0.211873 z m 2.826692,-0.69763 v 3.302114 h -1.865513 v -0.857826 q -0.372069,0.527098 -0.837156,0.769976 -0.465086,0.237711 -1.13171,0.237711 -0.899167,0 -1.462438,-0.52193 -0.558104,-0.527098 -0.558104,-1.364254 0,-1.018022 0.697629,-1.493444 0.702798,-0.475421 2.201409,-0.475421 h 1.09037 v -0.144694 q 0,-0.439248 -0.346231,-0.640786 -0.346231,-0.206705 -1.080034,-0.206705 -0.594277,0 -1.105872,0.118856 -0.511595,0.118855 -0.950844,0.356566 v -1.410762 q 0.594277,-0.144694 1.193722,-0.217041 0.599445,-0.07751 1.198889,-0.07751 1.565791,0 2.258253,0.620115 0.69763,0.614948 0.69763,2.005039 z"
         style="font-weight:bold"
         id="path862" />
      <path
         d="m 61.407655,58.969008 v 1.643305 h 1.906855 v 1.322912 h -1.906855 v 2.454623 q 0,0.403075 0.160197,0.547769 0.160196,0.139525 0.635618,0.139525 h 0.950843 v 1.322913 h -1.586461 q -1.095537,0 -1.555456,-0.454751 -0.454751,-0.459919 -0.454751,-1.555456 v -2.454623 h -0.919838 v -1.322912 h 0.919838 v -1.643305 z"
         style="font-weight:bold"
         id="path864" />
      <path
         d="m 70.223629,63.490681 v 0.527098 h -4.325304 q 0.06718,0.651121 0.470254,0.976681 0.403075,0.325561 1.126543,0.325561 0.583942,0 1.193722,-0.170532 0.614947,-0.175699 1.260901,-0.527098 v 1.426265 q -0.656289,0.248046 -1.312578,0.372069 -0.656288,0.129191 -1.312577,0.129191 -1.570958,0 -2.444287,-0.795814 -0.868162,-0.800983 -0.868162,-2.24275 0,-1.41593 0.852659,-2.227248 0.857826,-0.811317 2.356438,-0.811317 1.364253,0 2.180738,0.821653 0.821653,0.821652 0.821653,2.196241 z m -1.901687,-0.614948 q 0,-0.527097 -0.310058,-0.84749 -0.304889,-0.325561 -0.800982,-0.325561 -0.537433,0 -0.873329,0.30489 -0.335895,0.299723 -0.418577,0.868161 z"
         style="font-weight:bold"
         id="path866" />
      <path
         d="m 75.561787,61.459804 v -3.100576 h 1.860346 v 8.040827 h -1.860346 v -0.837156 q -0.382404,0.511595 -0.842323,0.749306 -0.459919,0.237711 -1.064531,0.237711 -1.069699,0 -1.756993,-0.847491 -0.687295,-0.852658 -0.687295,-2.191073 0,-1.338416 0.687295,-2.185907 0.687294,-0.852658 1.756993,-0.852658 0.599445,0 1.059363,0.242878 0.465087,0.237711 0.847491,0.744139 z m -1.21956,3.746529 q 0.594277,0 0.904335,-0.434081 0.315225,-0.43408 0.315225,-1.2609 0,-0.826821 -0.315225,-1.260901 -0.310058,-0.434081 -0.904335,-0.434081 -0.589109,0 -0.904334,0.434081 -0.310058,0.43408 -0.310058,1.260901 0,0.82682 0.310058,1.2609 0.315225,0.434081 0.904334,0.434081 z"
         style="font-weight:bold"
         id="path868" />
      <path
         d="m 82.300372,67.795314 h -1.534785 q -0.790647,-1.276404 -1.167883,-2.423617 -0.377237,-1.152381 -0.377237,-2.284091 0,-1.13171 0.377237,-2.289258 0.382404,-1.162717 1.167883,-2.428785 h 1.534785 q -0.661456,1.224727 -0.992184,2.397779 -0.330728,1.167883 -0.330728,2.309929 0,1.142045 0.32556,2.315097 0.330729,1.173051 0.997352,2.402946 z"
         style="font-weight:bold"
         id="path870" />
      <path
         d="m 83.99535,67.795314 q 0.661457,-1.229895 0.992185,-2.402946 0.330728,-1.173052 0.330728,-2.315097 0,-1.142046 -0.330728,-2.309929 -0.330728,-1.173052 -0.992185,-2.397779 h 1.534786 q 0.785479,1.266068 1.162716,2.428785 0.382404,1.157548 0.382404,2.289258 0,1.13171 -0.377237,2.284091 -0.377237,1.147213 -1.167883,2.423617 z"
         style="font-weight:bold"
         id="path872" />
    </g>
    <g
       transform="matrix(0.26458333,0,0,0.26458333,14.723097,52.991401)"
       id="text18131"
       style="font-size:40px;line-height:1.25;font-family:'Droid Sans Fallback';-inkscape-font-specification:'Droid Sans Fallback';white-space:pre;shape-inside:url(#rect18133);fill:#5865f2" />
    <g
       transform="matrix(0.26458333,0,0,0.26458333,18.314817,49.576914)"
       id="text60003"
       style="font-size:40px;line-height:1.25;font-family:'Droid Sans Fallback';-inkscape-font-specification:'Droid Sans Fallback';white-space:pre;shape-inside:url(#rect60005);fill:#5865f2" />
  </g>
</svg>
